<svg width="60" height="60" viewBox="0 0 60 60" fill="none" xmlns="http://www.w3.org/2000/svg">
<g id="&#208;&#144;&#208;&#178;&#208;&#176;&#209;&#130;&#208;&#176;&#209;&#128;">
<mask id="mask0_4_47292" style="mask-type:alpha" maskUnits="userSpaceOnUse" x="0" y="0" width="60" height="60">
<circle id="Ellipse 2" cx="30" cy="30" r="30" fill="#9ED7F4"/>
</mask>
<g mask="url(#mask0_4_47292)">
<g id="2">
<path id="Vector" fill-rule="evenodd" clip-rule="evenodd" d="M30.4883 65.7882H9.00509C8.76302 54.8045 17.205 48.42 24.467 46.0599C25.0721 42.9736 24.9208 39.0098 24.9208 39.0098H30.4883H36.0558C36.0558 39.0098 35.9045 42.9736 36.4794 46.0599C43.7413 48.4503 52.1833 54.8045 51.9413 65.7882H30.4883Z" fill="#FF9900"/>
<path id="Vector_2" fill-rule="evenodd" clip-rule="evenodd" d="M18.6877 30.2047C18.6271 29.6298 16.2973 28.9641 15.5106 30.8401C14.7239 32.7161 16.146 35.3788 18.8087 35.5906C21.4714 35.8024 20.6847 35.3183 20.6847 35.3183L18.6877 30.2047Z" fill="#FFC3BD"/>
<path id="Vector_3" fill-rule="evenodd" clip-rule="evenodd" d="M42.3797 30.2047C42.4402 29.6298 44.7701 28.9641 45.5568 30.8401C46.3435 32.7161 44.9214 35.3788 42.2587 35.5906C39.596 35.8024 40.3827 35.3183 40.3827 35.3183L42.3797 30.2047Z" fill="#FFC3BD"/>
<path id="Vector_4" fill-rule="evenodd" clip-rule="evenodd" d="M36.1465 42.9433C33.7259 47.5728 27.4927 48.0569 24.83 43.1249C24.8905 42.1263 24.9208 41.1581 24.9208 40.4319H36.0558C36.086 41.1278 36.086 42.0053 36.1465 42.9433Z" fill="#CC9C97"/>
<path id="Vector_5" fill-rule="evenodd" clip-rule="evenodd" d="M30.4883 42.8525C16.6301 43.1854 9.64049 9.02402 30.4883 9.90151C51.3361 9.02402 44.3465 43.1854 30.4883 42.8525Z" fill="#FFC3BD"/>
<path id="Vector_6" fill-rule="evenodd" clip-rule="evenodd" d="M25.8588 26.9973C26.4035 27.3907 26.5548 28.1774 26.1311 28.722C25.7378 29.2667 24.9511 29.3877 24.4064 28.9943C23.8618 28.601 23.7105 27.8143 24.1341 27.2696C24.5275 26.725 25.2839 26.604 25.8588 26.9973Z" fill="#20201E"/>
<path id="Vector_7" fill-rule="evenodd" clip-rule="evenodd" d="M35.2388 26.9973C34.6942 27.3907 34.5429 28.1774 34.9665 28.722C35.3599 29.2667 36.1466 29.3877 36.6912 28.9943C37.2359 28.601 37.3872 27.8143 36.9635 27.2696C36.5702 26.725 35.7835 26.604 35.2388 26.9973Z" fill="#20201E"/>
<path id="Vector_8" fill-rule="evenodd" clip-rule="evenodd" d="M24.3157 31.5057C25.0116 32.0504 25.0419 32.8371 24.3762 33.2909C23.7105 33.7146 22.591 33.654 21.895 33.1094C21.1991 32.5648 21.1688 31.778 21.8345 31.3242C22.5002 30.8703 23.6197 30.9611 24.3157 31.5057Z" fill="#ED847E"/>
<path id="Vector_9" fill-rule="evenodd" clip-rule="evenodd" d="M36.7517 31.5057C36.0558 32.0504 36.0255 32.8371 36.6912 33.2909C37.3569 33.7146 38.4764 33.654 39.1724 33.1094C39.8683 32.5648 39.8986 31.778 39.2329 31.3242C38.5975 30.8703 37.4779 30.9611 36.7517 31.5057Z" fill="#ED847E"/>
<path id="Vector_10" fill-rule="evenodd" clip-rule="evenodd" d="M26.4035 23.6386C26.343 23.6084 26.3127 23.6084 26.2522 23.5781C25.7075 23.3966 25.2537 23.3361 24.6788 23.3663C24.1039 23.4268 23.6802 23.5479 23.1961 23.8202C22.9843 23.9715 22.1068 24.6674 22.3489 24.9397C22.4397 24.97 23.3171 24.5161 23.5895 24.4253C23.9828 24.3043 24.3157 24.2741 24.7393 24.2741C25.1326 24.3043 25.4352 24.3346 25.7983 24.4859C25.7983 24.4859 25.8588 24.5161 25.8891 24.5161C26.6153 24.8792 26.5548 25.091 27.0389 24.7582C27.7651 24.3648 26.9784 23.9412 26.4035 23.6386Z" fill="#263238"/>
<path id="Vector_11" fill-rule="evenodd" clip-rule="evenodd" d="M34.6034 23.6386C34.6639 23.6084 34.6942 23.6084 34.7547 23.5781C35.2993 23.3966 35.7532 23.3361 36.3281 23.3663C36.903 23.4268 37.3266 23.5479 37.8108 23.8202C38.0226 23.9715 38.9001 24.6674 38.658 24.9397C38.5672 24.97 37.6897 24.5161 37.4174 24.4253C37.0241 24.3043 36.6912 24.2741 36.2676 24.2741C35.8742 24.3043 35.5717 24.3346 35.2086 24.4859C35.2086 24.4859 35.1481 24.5161 35.1178 24.5161C34.3916 24.8792 34.4521 25.091 33.968 24.7582C33.2418 24.3648 34.0285 23.9412 34.6034 23.6386Z" fill="#263238"/>
<path id="Vector_12" fill-rule="evenodd" clip-rule="evenodd" d="M29.8529 38.3137C29.7924 38.2835 29.7621 38.1927 29.7924 38.1019C29.8226 38.0414 29.9134 38.0112 30.0042 38.0414C30.216 38.1624 30.4883 38.223 30.7304 38.223C31.0027 38.223 31.2448 38.1624 31.4566 38.0414C31.5171 38.0112 31.6079 38.0112 31.6684 38.1019C31.6986 38.1624 31.6986 38.2532 31.6078 38.3137C31.3658 38.465 31.0329 38.5255 30.7304 38.5255C30.4278 38.5255 30.0949 38.465 29.8529 38.3137Z" fill="#ED847E"/>
<path id="Vector_13" fill-rule="evenodd" clip-rule="evenodd" d="M30.3975 32.8673C30.3068 32.8673 30.2462 32.8068 30.2462 32.716C30.2462 32.6252 30.3068 32.5647 30.3975 32.5647C30.7606 32.5647 31.1842 32.5647 31.5171 32.5042C31.7894 32.4437 32.0012 32.3832 32.0012 32.2621C32.0012 31.8385 31.5776 29.1455 31.5473 29.1455C31.5473 29.0548 31.5776 28.9942 31.6684 28.964C31.7592 28.964 31.8197 28.9943 31.8499 29.085C31.8499 29.085 32.3038 31.8083 32.3038 32.2621C32.3038 32.5647 32.0012 32.7463 31.5776 32.8068C31.2145 32.8673 30.7606 32.8673 30.3975 32.8673Z" fill="#ED847E"/>
<path id="Vector_14" fill-rule="evenodd" clip-rule="evenodd" d="M44.7096 32.2924C44.7096 32.3832 44.6491 32.4437 44.5583 32.4437C44.4675 32.4437 44.407 32.3832 44.407 32.2924C44.407 31.8385 44.3162 31.5359 44.1952 31.3847C44.1044 31.2939 44.0137 31.2334 43.9229 31.2334C43.8019 31.2334 43.6506 31.2636 43.4993 31.3544C43.1059 31.5662 42.6823 32.0503 42.4705 32.5647C42.3495 32.8068 42.2587 33.0791 42.2284 33.2607C42.4705 33.1094 42.7126 33.0488 42.9244 33.0488C43.0454 33.0488 43.1664 33.1094 43.2572 33.1699C43.348 33.2304 43.4085 33.3212 43.469 33.4422C43.5295 33.654 43.469 33.9263 43.2572 34.2592C43.1967 34.3197 43.1059 34.3499 43.0454 34.2894C42.9849 34.2289 42.9546 34.1381 43.0151 34.0776C43.1664 33.8356 43.227 33.654 43.1967 33.5027C43.1664 33.4422 43.1362 33.4119 43.1059 33.3817C43.0454 33.3514 42.9849 33.3212 42.9244 33.3212C42.7428 33.2909 42.5008 33.3817 42.289 33.5935C42.2284 33.654 42.1982 33.6843 42.1377 33.6843C42.0166 33.7145 41.9561 33.654 41.9259 33.533C41.9259 33.5027 41.9259 33.4422 41.9259 33.3514C41.9561 33.1396 42.0771 32.7463 42.2587 32.4134C42.5008 31.8385 42.9546 31.3241 43.4085 31.0518C43.5901 30.9308 43.8019 30.8703 43.9834 30.9005C44.165 30.9005 44.3465 30.9913 44.4978 31.1426C44.6188 31.4149 44.7096 31.778 44.7096 32.2924Z" fill="#ED847E"/>
<path id="Vector_15" fill-rule="evenodd" clip-rule="evenodd" d="M16.5999 32.2925C16.5999 32.3833 16.5394 32.4438 16.4486 32.4438C16.3578 32.4438 16.2973 32.3833 16.2973 32.2925C16.2973 31.7479 16.3881 31.4151 16.5696 31.2033C16.7209 31.0217 16.8722 30.9612 17.084 30.9612C17.2656 30.9612 17.4471 31.0217 17.6589 31.1125C18.1128 31.3545 18.5666 31.8992 18.8087 32.4741C18.96 32.8372 19.081 33.2003 19.1416 33.4121C19.1416 33.4726 19.1416 33.5331 19.1416 33.5936C19.1113 33.7147 19.0508 33.7752 18.9297 33.7449C18.8692 33.7449 18.839 33.7147 18.7785 33.6541C18.5666 33.4423 18.3246 33.3516 18.143 33.3818C18.0825 33.3818 18.022 33.4121 17.9615 33.4423C17.9312 33.4726 17.901 33.5029 17.8707 33.5634C17.8405 33.6844 17.8707 33.866 18.0523 34.1383C18.1128 34.1988 18.0825 34.2896 18.022 34.3501C17.9615 34.4106 17.8707 34.3803 17.8102 34.3198C17.5984 33.987 17.5379 33.7147 17.5984 33.5029C17.6286 33.3818 17.7194 33.2911 17.8102 33.2305C17.901 33.17 18.022 33.1398 18.143 33.1095C18.3548 33.0792 18.5969 33.1398 18.839 33.3213C18.7785 33.1398 18.6877 32.8674 18.5969 32.6254C18.3851 32.111 17.9615 31.6269 17.5681 31.4151C17.4168 31.3243 17.2958 31.294 17.1445 31.294C17.0235 31.294 16.9327 31.3545 16.8722 31.4453C16.6604 31.5663 16.5999 31.8387 16.5999 32.2925Z" fill="#ED847E"/>
<path id="Vector_16" fill-rule="evenodd" clip-rule="evenodd" d="M45.8291 12.7457C46.404 12.8668 46.3435 13.3207 44.6491 14.531C46.1922 16.4977 46.4343 19.6143 45.9199 22.5191C45.7989 23.1545 44.0439 27.5722 42.41 30.477C42.2587 30.7493 42.3495 24.7279 40.6247 22.3375C39.7473 21.1272 39.0211 19.6748 37.2358 18.4645C37.2056 18.7974 38.2949 19.7354 37.8713 19.9169C36.3584 20.6431 32.0617 19.8867 30.0949 19.4025C30.6698 19.9774 31.2447 20.401 31.0329 20.6431C30.337 21.3088 26.0404 20.28 23.3777 18.4948C22.7422 20.6128 21.8345 22.8822 20.8057 23.4874C18.0522 25.091 19.2626 31.8991 18.5364 30.9006C15.2382 26.3014 16.0552 20.3708 16.0552 20.3708C15.7224 20.8852 15.3593 21.3088 15.1172 21.8232C14.6633 22.7612 14.3607 14.0771 18.4758 12.9273C18.4758 12.9273 17.8102 12.7155 16.146 13.0181C15.5408 13.1391 17.3563 11.4446 19.3231 11.2026C19.3836 10.3554 19.7769 6.90594 22.2884 5.78639C23.4684 5.272 25.3747 4.90891 25.1326 5.0602C23.9223 5.78639 23.5895 6.78491 23.5895 6.78491C32.7879 2.42775 36.9938 7.05723 40.5945 9.962C41.6535 10.8395 43.9531 12.5945 45.8291 12.7457Z" fill="#263238"/>
<path id="Vector_17" fill-rule="evenodd" clip-rule="evenodd" d="M24.7998 24.1228C26.0404 24.1228 27.1297 24.6069 27.9466 25.4239C28.7636 26.2409 29.2477 27.3302 29.2477 28.5707C29.2477 29.7811 28.7636 30.9006 27.9466 31.7176C27.1297 32.5345 26.0404 33.0187 24.7998 33.0187C23.5592 33.0187 22.4699 32.5345 21.653 31.7176C20.836 30.9006 20.3519 29.8113 20.3519 28.5707C20.3519 27.3302 20.836 26.2409 21.653 25.4239C22.4699 24.6069 23.5895 24.1228 24.7998 24.1228ZM27.4323 25.9383C26.7666 25.2726 25.8286 24.849 24.8301 24.849C23.8013 24.849 22.8936 25.2726 22.2279 25.9383C21.5622 26.604 21.1386 27.542 21.1386 28.5405C21.1386 29.5693 21.5622 30.477 22.2279 31.1427C22.8936 31.8084 23.8316 32.232 24.8301 32.232C25.8588 32.232 26.7666 31.8084 27.4323 31.1427C28.0979 30.477 28.5216 29.539 28.5216 28.5405C28.4913 27.542 28.0979 26.6342 27.4323 25.9383Z" fill="#263238"/>
<path id="Vector_18" fill-rule="evenodd" clip-rule="evenodd" d="M36.2071 24.1228C37.4174 24.1228 38.537 24.6069 39.3539 25.4239C40.1709 26.2409 40.655 27.3302 40.655 28.5707C40.655 29.7811 40.1709 30.9006 39.3539 31.7176C38.537 32.5345 37.4477 33.0187 36.2071 33.0187C34.9665 33.0187 33.8772 32.5345 33.0602 31.7176C32.2433 30.9006 31.7591 29.8113 31.7591 28.5707C31.7591 27.3302 32.2433 26.2409 33.0602 25.4239C33.847 24.6069 34.9665 24.1228 36.2071 24.1228ZM38.8093 25.9383C38.1436 25.2726 37.2056 24.849 36.2071 24.849C35.1783 24.849 34.2706 25.2726 33.6049 25.9383C32.9392 26.604 32.5156 27.542 32.5156 28.5405C32.5156 29.5693 32.9392 30.477 33.6049 31.1427C34.2706 31.8084 35.2086 32.232 36.2071 32.232C37.2359 32.232 38.1436 31.8084 38.8093 31.1427C39.475 30.477 39.8986 29.539 39.8986 28.5405C39.8683 27.542 39.475 26.6342 38.8093 25.9383Z" fill="#263238"/>
<path id="Vector_19" fill-rule="evenodd" clip-rule="evenodd" d="M20.6242 28.2077C20.7755 28.1472 20.957 28.2379 21.0176 28.3892C21.0781 28.5405 20.9873 28.7221 20.836 28.7826L18.2036 29.7206C18.0523 29.7811 17.8707 29.6903 17.8102 29.539C17.7497 29.3877 17.8405 29.2062 17.9917 29.1457L20.6242 28.2077Z" fill="#263238"/>
<path id="Vector_20" fill-rule="evenodd" clip-rule="evenodd" d="M40.2012 28.7523C40.0499 28.6918 39.9591 28.5102 40.0196 28.3589C40.0801 28.2077 40.2617 28.1169 40.413 28.1774L43.0454 29.1154C43.1967 29.1759 43.2875 29.3575 43.227 29.5088C43.1664 29.66 42.9849 29.7508 42.8336 29.6903L40.2012 28.7523Z" fill="#263238"/>
<path id="Vector_21" fill-rule="evenodd" clip-rule="evenodd" d="M28.9451 28.2076C28.8544 28.3589 28.6728 28.3892 28.5215 28.2984C28.3702 28.2076 28.34 28.0261 28.4307 27.8748C28.4307 27.8748 28.9451 26.9973 30.5186 26.9973C32.092 26.9973 32.6064 27.8445 32.6064 27.8748C32.6971 28.0261 32.6366 28.2076 32.5156 28.2984C32.3643 28.3892 32.1827 28.3287 32.092 28.2076C32.092 28.2076 31.7591 27.6327 30.5186 27.6327C29.278 27.6327 28.9451 28.2076 28.9451 28.2076Z" fill="#263238"/>
<path id="Vector_22" fill-rule="evenodd" clip-rule="evenodd" d="M35.2086 34.2896C33.3326 34.9855 27.5835 34.9855 25.7983 34.3803C26.7968 37.9508 34.2403 37.8903 35.2086 34.2896Z" fill="white"/>
<path id="Vector_23" fill-rule="evenodd" clip-rule="evenodd" d="M24.709 42.308C24.5577 42.2474 24.1644 42.2474 24.1644 42.5198C24.1644 42.8223 24.4367 43.8511 24.2552 44.6076C24.0433 45.4245 23.6803 46.0902 24.1039 46.2415C26.0101 46.9677 28.0677 47.361 30.1252 47.4216C32.4551 47.4821 34.785 47.0887 36.903 46.2415C37.3266 46.0902 36.9635 45.4245 36.7517 44.6076C36.5399 43.8511 36.8425 42.8223 36.8425 42.5198C36.8425 42.2474 36.4492 42.2474 36.2979 42.308C32.5761 43.8814 28.4005 43.8814 24.709 42.308Z" fill="#CC7A00"/>
<path id="Vector_24" fill-rule="evenodd" clip-rule="evenodd" d="M14.8449 59.5551C14.8449 59.434 14.9357 59.3433 15.0567 59.3433C15.1777 59.3433 15.2685 59.434 15.2685 59.5551L15.2383 65.7882C15.2383 65.9093 15.1475 66 15.0265 66C14.9054 66 14.8147 65.9093 14.8147 65.7882L14.8449 59.5551Z" fill="#CC7A00"/>
<path id="Vector_25" fill-rule="evenodd" clip-rule="evenodd" d="M45.7686 59.5551C45.7686 59.434 45.8594 59.3433 45.9804 59.3433C46.1015 59.3433 46.1922 59.434 46.1922 59.5551L46.1317 65.758C46.1317 65.879 46.0409 65.9698 45.9199 65.9698C45.7989 65.9698 45.7081 65.879 45.7081 65.758L45.7686 59.5551Z" fill="#CC7A00"/>
<g id="Group 92">
<path id="Vector_26" fill-rule="evenodd" clip-rule="evenodd" d="M25.1931 43.0038C25.1931 42.9131 25.2537 42.8525 25.3444 42.8525C25.4352 42.8525 25.4957 42.9131 25.4957 43.0038C25.4957 43.2156 25.4957 43.3972 25.4957 43.609C25.4957 44.0023 25.4957 44.3957 25.4352 44.8798C25.3747 45.6363 24.9813 46.2717 24.9813 46.2717C24.9511 46.3322 24.83 46.3625 24.7695 46.3322C24.709 46.302 24.6788 46.1809 24.709 46.1204C24.709 46.1204 25.0721 45.5455 25.1326 44.8798C25.1629 44.3957 25.1629 44.0023 25.1931 43.6392C25.1931 43.3972 25.1931 43.2156 25.1931 43.0038Z" fill="#FF9900"/>
<path id="Vector_27" fill-rule="evenodd" clip-rule="evenodd" d="M26.4337 43.4578C26.4337 43.367 26.4942 43.3065 26.585 43.3065C26.6758 43.3065 26.7363 43.367 26.7363 43.4578C26.7363 43.6696 26.7363 43.8512 26.7363 44.063C26.7363 44.4563 26.7363 44.8497 26.6758 45.3338C26.6153 46.0903 26.2219 46.7257 26.2219 46.7257C26.1917 46.7862 26.0706 46.8165 26.0101 46.7862C25.9496 46.7559 25.9193 46.6349 25.9496 46.5744C25.9496 46.5744 26.3127 45.9995 26.3732 45.3338C26.4035 44.8497 26.4035 44.4563 26.4337 44.0932C26.4035 43.8512 26.4337 43.6394 26.4337 43.4578Z" fill="#FF9900"/>
<path id="Vector_28" fill-rule="evenodd" clip-rule="evenodd" d="M27.7046 43.6999C27.7046 43.6091 27.7651 43.5486 27.8559 43.5486C27.9466 43.5486 28.0071 43.6091 28.0071 43.6999C28.0071 43.9117 28.0071 44.0932 28.0071 44.305C28.0071 44.6984 28.0071 45.0917 27.9466 45.5759C27.8861 46.3323 27.4928 46.9677 27.4928 46.9677C27.4625 47.0283 27.3415 47.0585 27.281 47.0283C27.2204 46.998 27.1902 46.877 27.2204 46.8165C27.2204 46.8165 27.5835 46.2416 27.644 45.5759C27.6743 45.0917 27.6743 44.6984 27.7046 44.3353C27.7046 44.0932 27.7046 43.8814 27.7046 43.6999Z" fill="#FF9900"/>
<path id="Vector_29" fill-rule="evenodd" clip-rule="evenodd" d="M29.0359 43.9117C29.0359 43.8209 29.0964 43.7604 29.1872 43.7604C29.278 43.7604 29.3385 43.8209 29.3385 43.9117C29.3385 44.1235 29.3385 44.305 29.3385 44.5168C29.3385 44.9102 29.3385 45.3035 29.278 45.7877C29.2175 46.5441 28.8241 47.1795 28.8241 47.1795C28.7939 47.24 28.6728 47.2703 28.6123 47.2401C28.5518 47.2098 28.5215 47.0888 28.5518 47.0282C28.5518 47.0282 28.9149 46.4533 28.9754 45.7877C29.0057 45.3035 29.0057 44.9102 29.0359 44.5471C29.0359 44.3353 29.0359 44.1235 29.0359 43.9117Z" fill="#FF9900"/>
<path id="Vector_30" fill-rule="evenodd" clip-rule="evenodd" d="M35.3599 43.0342C35.3599 42.9435 35.4204 42.8829 35.5111 42.8829C35.6019 42.8829 35.6624 42.9435 35.6624 43.0342C35.6624 43.246 35.6624 43.4276 35.6624 43.6394C35.6624 44.0327 35.6624 44.4261 35.723 44.88C35.7835 45.5456 36.1466 46.1206 36.1466 46.1206C36.1768 46.1811 36.1768 46.2718 36.086 46.3324C36.0255 46.3626 35.9348 46.3626 35.8742 46.2718C35.8742 46.2718 35.4809 45.6364 35.4204 44.88C35.3901 44.3958 35.3901 44.0025 35.3599 43.6091C35.3599 43.4276 35.3599 43.2158 35.3599 43.0342Z" fill="#FF9900"/>
<path id="Vector_31" fill-rule="evenodd" clip-rule="evenodd" d="M34.1193 43.4578C34.1193 43.367 34.1798 43.3065 34.2706 43.3065C34.3613 43.3065 34.4219 43.367 34.4219 43.4578C34.4219 43.6696 34.4219 43.8512 34.4219 44.063C34.4219 44.4563 34.4219 44.8497 34.4824 45.3035C34.5429 45.9692 34.906 46.5441 34.906 46.5441C34.9362 46.6046 34.9362 46.6954 34.8455 46.7559C34.7849 46.7862 34.6942 46.7862 34.6337 46.6954C34.6337 46.6954 34.2403 46.06 34.1798 45.3035C34.1495 44.8194 34.1495 44.4261 34.1193 44.0327C34.1495 43.8512 34.1193 43.6696 34.1193 43.4578Z" fill="#FF9900"/>
<path id="Vector_32" fill-rule="evenodd" clip-rule="evenodd" d="M32.8484 43.6999C32.8484 43.6091 32.9089 43.5486 32.9997 43.5486C33.0905 43.5486 33.151 43.6091 33.151 43.6999C33.151 43.9117 33.151 44.0932 33.151 44.305C33.151 44.6984 33.151 45.0917 33.2115 45.5456C33.272 46.2113 33.6351 46.7862 33.6351 46.7862C33.6654 46.8467 33.6654 46.9375 33.5746 46.998C33.5141 47.0283 33.4233 47.0283 33.3628 46.9375C33.3628 46.9375 32.9695 46.3021 32.9089 45.5456C32.8787 45.0615 32.8787 44.6681 32.8484 44.2748C32.8484 44.0932 32.8484 43.9117 32.8484 43.6999Z" fill="#FF9900"/>
<path id="Vector_33" fill-rule="evenodd" clip-rule="evenodd" d="M31.5171 43.9419C31.5171 43.8512 31.5776 43.7906 31.6684 43.7906C31.7592 43.7906 31.8197 43.8512 31.8197 43.9419C31.8197 44.1537 31.8197 44.3353 31.8197 44.5471C31.8197 44.9405 31.8197 45.3338 31.8802 45.7877C31.9407 46.4534 32.3038 47.0283 32.3038 47.0283C32.3341 47.0888 32.3341 47.1796 32.2433 47.2401C32.1828 47.2703 32.092 47.2703 32.0315 47.1796C32.0315 47.1796 31.6381 46.5441 31.5776 45.7877C31.5473 45.3036 31.5473 44.9102 31.5171 44.5169C31.5171 44.3353 31.5171 44.1537 31.5171 43.9419Z" fill="#FF9900"/>
<path id="Vector_34" fill-rule="evenodd" clip-rule="evenodd" d="M30.3068 43.9419C30.3068 43.8512 30.3673 43.7906 30.4581 43.7906C30.5488 43.7906 30.6093 43.8512 30.6093 43.9419V47.119C30.6093 47.2098 30.5488 47.2703 30.4581 47.2703C30.3673 47.2703 30.3068 47.2098 30.3068 47.119V43.9419Z" fill="#FF9900"/>
</g>
</g>
</g>
</g>
</svg>
