<svg width="60" height="60" viewBox="0 0 60 60" fill="none" xmlns="http://www.w3.org/2000/svg">
<g id="&#208;&#144;&#208;&#178;&#208;&#176;&#209;&#130;&#208;&#176;&#209;&#128;">
<mask id="mask0_4_47296" style="mask-type:alpha" maskUnits="userSpaceOnUse" x="0" y="0" width="60" height="60">
<circle id="Ellipse 5" cx="30" cy="30" r="30" fill="#9ED7F4"/>
</mask>
<g mask="url(#mask0_4_47296)">
<g id="3">
<path id="Vector" fill-rule="evenodd" clip-rule="evenodd" d="M30.014 62.4489H50C50 43.6385 35.0805 53.7994 35.0805 38.1241H29.986H24.8356C24.8356 53.7994 10 43.6385 10 62.4489H30.014Z" fill="#FFC3BD"/>
<path id="Vector_2" fill-rule="evenodd" clip-rule="evenodd" d="M19.0693 28.6069C19.0133 28.0751 16.8579 27.4592 16.1301 29.1947C15.4024 30.9302 16.718 33.3935 19.1812 33.5894C21.6445 33.7854 20.9167 33.3375 20.9167 33.3375L19.0693 28.6069Z" fill="#FFC3BD"/>
<path id="Vector_3" fill-rule="evenodd" clip-rule="evenodd" d="M40.9867 28.6069C41.0427 28.0751 43.198 27.4592 43.9258 29.1947C44.6536 30.9302 43.338 33.3935 40.8747 33.5894C38.4115 33.7854 39.1393 33.3375 39.1393 33.3375L40.9867 28.6069Z" fill="#FFC3BD"/>
<path id="Vector_4" fill-rule="evenodd" clip-rule="evenodd" d="M35.1644 37.6763C35.1644 37.6763 35.1364 38.4041 35.1644 39.4677C33.373 43.9744 26.767 44.1423 24.8635 39.6637C24.8915 38.488 24.8635 37.6763 24.8635 37.6763C28.2785 37.6763 31.7215 37.6763 35.1644 37.6763Z" fill="#CC9C97"/>
<path id="Vector_5" fill-rule="evenodd" clip-rule="evenodd" d="M30.014 40.3074C17.1938 40.6154 10.7278 9.01282 30.014 9.82458C49.3002 9.01282 42.8062 40.6154 30.014 40.3074Z" fill="#FFC3BD"/>
<path id="Vector_6" fill-rule="evenodd" clip-rule="evenodd" d="M24.2757 29.2227C24.9195 29.7265 24.9475 30.4543 24.3317 30.8742C23.7159 31.2661 22.6802 31.2101 22.0364 30.7062C21.3926 30.2024 21.3646 29.4746 21.9804 29.0547C22.5962 28.6349 23.6319 28.7188 24.2757 29.2227Z" fill="#ED847E"/>
<path id="Vector_7" fill-rule="evenodd" clip-rule="evenodd" d="M35.8083 29.2227C35.1645 29.7265 35.1365 30.4543 35.7523 30.8742C36.3681 31.2661 37.4038 31.2101 38.0476 30.7062C38.6914 30.2024 38.7194 29.4746 38.1036 29.0547C37.4878 28.6349 36.4521 28.7188 35.8083 29.2227Z" fill="#ED847E"/>
<path id="Vector_8" fill-rule="evenodd" clip-rule="evenodd" d="M26.2071 21.945C26.1512 21.917 26.1232 21.917 26.0672 21.889C25.5633 21.721 25.1435 21.665 24.6116 21.693C24.0798 21.749 23.6879 21.861 23.24 22.1129C23.0441 22.2529 22.2323 22.8967 22.4563 23.1486C22.5402 23.1766 23.352 22.7567 23.6039 22.6727C23.9678 22.5608 24.2757 22.5328 24.6676 22.5328C25.0315 22.5608 25.3114 22.5888 25.6473 22.7287C25.6473 22.7287 25.7033 22.7567 25.7313 22.7567C26.4031 23.0926 26.3471 23.2886 26.795 22.9806C27.4948 22.6168 26.739 22.2249 26.2071 21.945Z" fill="#263238"/>
<path id="Vector_9" fill-rule="evenodd" clip-rule="evenodd" d="M33.8208 21.945C33.8768 21.917 33.9048 21.917 33.9608 21.889C34.4646 21.721 34.8845 21.665 35.4164 21.693C35.9482 21.749 36.3401 21.861 36.788 22.1129C36.9839 22.2529 37.7957 22.8967 37.5717 23.1486C37.4877 23.1766 36.676 22.7567 36.4241 22.6727C36.0602 22.5608 35.7523 22.5328 35.3604 22.5328C34.9965 22.5608 34.7166 22.5888 34.3807 22.7287C34.3807 22.7287 34.3247 22.7567 34.2967 22.7567C33.6249 23.0926 33.6809 23.2886 33.233 22.9806C32.5332 22.6168 33.261 22.2249 33.8208 21.945Z" fill="#263238"/>
<path id="Vector_10" fill-rule="evenodd" clip-rule="evenodd" d="M26.683 31.9099C27.8586 31.882 29.0343 31.882 30.2099 31.882C31.3856 31.882 32.5612 31.882 33.7369 31.9099C33.7369 33.7574 31.9174 34.4292 30.2099 34.4292C28.5024 34.4012 26.683 33.7574 26.683 31.9099Z" fill="white"/>
<path id="Vector_11" fill-rule="evenodd" clip-rule="evenodd" d="M29.3982 35.5209C29.3422 35.4929 29.3142 35.4089 29.3422 35.3249C29.3702 35.2689 29.4542 35.2409 29.5381 35.2689C29.7341 35.3809 29.986 35.4369 30.2099 35.4369C30.4619 35.4369 30.6858 35.3809 30.8817 35.2689C30.9377 35.2409 31.0217 35.2409 31.0777 35.3249C31.1057 35.3809 31.1057 35.4649 31.0217 35.5209C30.7978 35.6608 30.4898 35.7168 30.2099 35.7168C29.93 35.7168 29.6501 35.6608 29.3982 35.5209Z" fill="#ED847E"/>
<path id="Vector_12" fill-rule="evenodd" clip-rule="evenodd" d="M29.902 29.3627C29.8181 29.3627 29.7621 29.3068 29.7621 29.2228C29.7621 29.1388 29.8181 29.0828 29.902 29.0828C30.2379 29.0828 30.6298 29.0828 30.9377 29.0268C31.1897 28.9709 31.3856 28.9149 31.3856 28.8029C31.3856 28.411 30.9937 25.9198 30.9657 25.9198C30.9657 25.8358 30.9937 25.7798 31.0777 25.7518C31.1617 25.7518 31.2177 25.7798 31.2456 25.8638C31.2456 25.8638 31.6655 28.383 31.6655 28.8029C31.6655 29.0828 31.3856 29.2508 30.9937 29.3068C30.6578 29.3627 30.2379 29.3627 29.902 29.3627Z" fill="#ED847E"/>
<path id="Vector_13" fill-rule="evenodd" clip-rule="evenodd" d="M43.142 30.5384C43.142 30.6224 43.0861 30.6784 43.0021 30.6784C42.9181 30.6784 42.8621 30.6224 42.8621 30.5384C42.8621 30.1185 42.7782 29.8386 42.6662 29.6987C42.5822 29.6147 42.4982 29.5587 42.4143 29.5587C42.3023 29.5587 42.1623 29.5867 42.0224 29.6707C41.6585 29.8666 41.2666 30.3145 41.0707 30.7903C40.9587 31.0143 40.8747 31.2662 40.8467 31.4341C41.0707 31.2942 41.2946 31.2382 41.4906 31.2382C41.6025 31.2382 41.7145 31.2942 41.7985 31.3502C41.8824 31.4061 41.9384 31.4901 41.9944 31.6021C42.0504 31.798 41.9944 32.0499 41.7985 32.3579C41.7425 32.4138 41.6585 32.4418 41.6025 32.3858C41.5465 32.3299 41.5185 32.2459 41.5745 32.1899C41.7145 31.966 41.7705 31.798 41.7425 31.6581C41.7145 31.6021 41.6865 31.5741 41.6585 31.5461C41.6025 31.5181 41.5465 31.4901 41.4906 31.4901C41.3226 31.4621 41.0987 31.5461 40.9027 31.742C40.8467 31.798 40.8187 31.826 40.7628 31.826C40.6508 31.854 40.5948 31.798 40.5668 31.6861C40.5668 31.6581 40.5668 31.6021 40.5668 31.5181C40.5948 31.3222 40.7068 30.9583 40.8747 30.6504C41.0987 30.1185 41.5185 29.6427 41.9384 29.3907C42.1064 29.2788 42.3023 29.2228 42.4703 29.2508C42.6382 29.2508 42.8062 29.3348 42.9461 29.4747C43.0581 29.7266 43.142 30.0625 43.142 30.5384Z" fill="#ED847E"/>
<path id="Vector_14" fill-rule="evenodd" clip-rule="evenodd" d="M17.1379 30.5384C17.1379 30.6224 17.0819 30.6784 16.9979 30.6784C16.9139 30.6784 16.8579 30.6224 16.8579 30.5384C16.8579 30.0345 16.9419 29.7266 17.1099 29.5307C17.2498 29.3627 17.3898 29.3068 17.5857 29.3068C17.7537 29.3068 17.9216 29.3627 18.1176 29.4467C18.5374 29.6707 18.9573 30.1745 19.1812 30.7063C19.3212 31.0422 19.4332 31.3781 19.4892 31.5741C19.4892 31.6301 19.4892 31.6861 19.4892 31.742C19.4612 31.854 19.4052 31.91 19.2932 31.882C19.2372 31.882 19.2092 31.854 19.1532 31.798C18.9573 31.6021 18.7334 31.5181 18.5654 31.5461C18.5094 31.5461 18.4535 31.5741 18.3975 31.6021C18.3695 31.6301 18.3415 31.6581 18.3135 31.714C18.2855 31.826 18.3135 31.994 18.4815 32.2459C18.5374 32.3019 18.5094 32.3858 18.4535 32.4418C18.3975 32.4978 18.3135 32.4698 18.2575 32.4138C18.0616 32.1059 18.0056 31.854 18.0616 31.6581C18.0896 31.5461 18.1735 31.4621 18.2575 31.4061C18.3415 31.3502 18.4535 31.3222 18.5654 31.2942C18.7614 31.2662 19.0133 31.3222 19.2092 31.4901C19.1533 31.3222 19.0693 31.0702 18.9853 30.8463C18.7894 30.3704 18.3975 29.9226 18.0336 29.7266C17.8936 29.6427 17.7817 29.6147 17.6417 29.6147C17.5297 29.6147 17.4458 29.6707 17.3898 29.7546C17.2218 29.8666 17.1379 30.1185 17.1379 30.5384Z" fill="#ED847E"/>
<path id="Vector_15" fill-rule="evenodd" clip-rule="evenodd" d="M39.895 17.0744C37.5717 16.0667 37.1239 14.9471 36.4801 13.6314C35.2764 11.0842 35.8922 8.28505 38.2715 7.38932C42.8622 5.65384 46.697 10.0765 46.1092 13.6314C45.6893 16.1507 42.9181 18.39 39.895 17.0744Z" fill="#263238"/>
<path id="Vector_16" fill-rule="evenodd" clip-rule="evenodd" d="M20.1889 17.0744C22.5122 16.0667 22.9601 14.9471 23.6039 13.6314C24.8075 11.0842 24.1917 8.28505 21.8124 7.38932C17.2218 5.65384 13.387 10.0765 13.9748 13.6314C14.3947 16.1507 17.1378 18.39 20.1889 17.0744Z" fill="#263238"/>
<path id="Vector_17" fill-rule="evenodd" clip-rule="evenodd" d="M19.0973 31.0982C19.6011 30.5664 18.7054 27.9632 19.4052 24.3522C20.1049 20.7413 28.6424 16.3746 30.014 14.3872C31.4136 16.3466 39.923 20.7413 40.6228 24.3522C41.3226 27.9632 40.9307 28.8029 41.4346 29.3347C41.8264 29.7266 46.8649 9.20878 30.014 9.34874C11.7914 9.34874 19.0413 31.1542 19.0973 31.0982Z" fill="#1C282E"/>
<path id="Vector_18" fill-rule="evenodd" clip-rule="evenodd" d="M29.986 14.0233C30.5458 17.4103 23.5759 19.2298 22.1483 28.271C20.8887 36.3326 23.1281 44.3382 23.1281 44.3382C23.24 44.7861 22.7082 44.5622 22.2323 43.5545C21.5045 42.0149 17.1099 33.7854 18.6774 26.2277C20.2449 18.6699 26.2911 15.199 29.986 14.0233Z" fill="#263238"/>
<path id="Vector_19" fill-rule="evenodd" clip-rule="evenodd" d="M30.042 14.0233C29.4822 17.4103 36.4521 19.2298 37.8796 28.271C39.1393 36.3326 36.8999 44.3382 36.8999 44.3382C36.788 44.7861 37.3198 44.5622 37.7957 43.5545C38.5235 42.0149 42.9181 33.7854 41.3506 26.2277C39.7551 18.6699 33.7369 15.199 30.042 14.0233Z" fill="#263238"/>
<path id="Vector_20" fill-rule="evenodd" clip-rule="evenodd" d="M35.4724 41.9309C32.5892 43.8343 27.2428 44.0303 24.4997 41.8469C24.3317 42.6587 24.0798 43.3585 23.7999 43.9743C27.2428 46.1576 32.7012 46.0177 36.2001 44.0023C35.8922 43.4145 35.6403 42.7147 35.4724 41.9309Z" fill="#263238"/>
<path id="Vector_21" fill-rule="evenodd" clip-rule="evenodd" d="M10 62.4488H30.2099H50C50 54.9191 47.6207 52.0359 44.7656 50.2724C36.704 60.0415 23.5199 59.9855 15.5143 50.1045C12.5472 51.84 10 54.6671 10 62.4488Z" fill="#263238"/>
<path id="Vector_22" fill-rule="evenodd" clip-rule="evenodd" d="M15.5144 56.7106C15.5144 56.5986 15.5983 56.5146 15.7103 56.5146C15.8223 56.5146 15.9062 56.5986 15.9062 56.7106L15.8503 62.4489C15.8503 62.5608 15.7663 62.6448 15.6543 62.6448C15.5423 62.6448 15.4584 62.5608 15.4584 62.4489L15.5144 56.7106Z" fill="#263238"/>
<path id="Vector_23" fill-rule="evenodd" clip-rule="evenodd" d="M44.1218 56.7106C44.1218 56.5986 44.2057 56.5146 44.3177 56.5146C44.4297 56.5146 44.5137 56.5986 44.5137 56.7106L44.4577 62.4489C44.4577 62.5608 44.3737 62.6448 44.2617 62.6448C44.1498 62.6448 44.0658 62.5608 44.0658 62.4489L44.1218 56.7106Z" fill="#263238"/>
<path id="Vector_24" fill-rule="evenodd" clip-rule="evenodd" d="M25.6212 25.1537C26.125 25.5176 26.265 26.2454 25.8731 26.7492C25.5092 27.2531 24.7814 27.3651 24.2776 27.0012C23.7737 26.6373 23.6338 25.9095 24.0257 25.4056C24.3896 24.9018 25.1173 24.7898 25.6212 25.1537Z" fill="#20201E"/>
<path id="Vector_25" fill-rule="evenodd" clip-rule="evenodd" d="M34.2986 25.1537C33.7948 25.5176 33.6548 26.2454 34.0467 26.7492C34.4106 27.2531 35.1384 27.3651 35.6422 27.0012C36.1461 26.6373 36.286 25.9095 35.8941 25.4056C35.5302 24.9018 34.8305 24.7898 34.2986 25.1537Z" fill="#20201E"/>
</g>
</g>
</g>
</svg>
