<svg width="60" height="60" viewBox="0 0 60 60" fill="none" xmlns="http://www.w3.org/2000/svg">
<g id="&#208;&#144;&#208;&#178;&#208;&#176;&#209;&#130;&#208;&#176;&#209;&#128;">
<mask id="mask0_8_5466" style="mask-type:alpha" maskUnits="userSpaceOnUse" x="0" y="0" width="60" height="60">
<circle id="Ellipse 6" cx="30" cy="30" r="30" fill="#9ED7F4"/>
</mask>
<g mask="url(#mask0_8_5466)">
<g id="4">
<path id="Vector" fill-rule="evenodd" clip-rule="evenodd" d="M44.707 21.3368C44.1318 24.3497 43.8305 24.5414 43.7484 26.2122C43.6662 27.9651 46.2682 29.6906 47.5007 30.2384C45.9669 34.8398 42.735 34.3194 40.6534 34.5386C38.5444 34.7303 39.5852 37.8801 34.0251 37.6336L31.3684 18.5979L44.707 21.3368ZM28.2186 20.5425L26.2191 37.6336C20.6591 37.8801 21.6725 34.7303 19.5909 34.5386C17.4819 34.3468 14.2773 34.8398 12.7435 30.2384C14.0034 29.6906 16.5781 27.9651 16.4959 26.2122C16.4137 24.5414 16.0029 23.528 15.4003 20.8438L18.4132 19.2279L28.2186 20.5425Z" fill="#CC7A00"/>
<path id="Vector_2" fill-rule="evenodd" clip-rule="evenodd" d="M40.8177 27.39C40.8724 26.8696 42.9814 26.267 43.6935 27.9652C44.4057 29.6633 43.1184 32.0736 40.7081 32.2653C38.2978 32.457 39.01 32.0188 39.01 32.0188L40.8177 27.39Z" fill="#FFC3BD"/>
<path id="Vector_3" fill-rule="evenodd" clip-rule="evenodd" d="M19.3444 27.39C19.2896 26.8696 17.1807 26.267 16.4685 27.9652C15.7564 29.6633 17.0437 32.0736 19.454 32.2653C21.8642 32.457 21.1521 32.0188 21.1521 32.0188L19.3444 27.39Z" fill="#FFC3BD"/>
<path id="Vector_4" fill-rule="evenodd" clip-rule="evenodd" d="M30.1083 60.5039H49.5548C49.774 50.5616 42.1323 44.7824 35.5588 42.646C35.0384 39.8797 35.1754 36.2643 35.1754 36.2643H30.1357H25.0961C25.0961 36.2643 25.233 39.8523 24.7126 42.646C18.1392 44.8098 10.4975 50.5616 10.7166 60.5039H30.1083Z" fill="#FFC3BD"/>
<path id="Vector_5" fill-rule="evenodd" clip-rule="evenodd" d="M25.0414 36.2643C25.0414 36.2643 25.0688 36.9764 25.0414 38.0172C26.9587 42.8377 32.9296 43.3855 35.1207 38.2089C35.0933 37.0586 35.1207 36.2643 35.1207 36.2643C31.7792 36.2643 28.4103 36.2643 25.0414 36.2643Z" fill="#CC9C97"/>
<path id="Vector_6" fill-rule="evenodd" clip-rule="evenodd" d="M10.0046 60.5038C9.78544 50.6984 17.4819 44.9466 24.2197 42.7281C25.5618 45.7135 34.6003 45.7135 35.9424 42.7007C42.6802 44.8918 50.4314 50.671 50.2123 60.5038H10.0046Z" fill="white"/>
<path id="Vector_7" fill-rule="evenodd" clip-rule="evenodd" d="M10.2236 57.217C10.5523 55.2997 11.2096 53.5468 12.0861 51.9856H48.1032C48.9797 53.5468 49.637 55.2723 49.9657 57.217H10.2236Z" fill="#3DB0E9"/>
<path id="Vector_8" fill-rule="evenodd" clip-rule="evenodd" d="M16.6602 46.7543C18.9883 44.8918 21.6725 43.5498 24.2197 42.7281C25.5618 45.7135 34.6003 45.7135 35.9424 42.7007C38.4896 43.5224 41.2011 44.8644 43.5566 46.7543H16.6602Z" fill="#3DB0E9"/>
<path id="Vector_9" fill-rule="evenodd" clip-rule="evenodd" d="M30.1084 38.8388C42.6528 39.1401 48.9798 8.21746 30.1084 9.01175C11.2371 8.21746 17.5641 39.1401 30.1084 38.8388Z" fill="#FFC3BD"/>
<path id="Vector_10" fill-rule="evenodd" clip-rule="evenodd" d="M34.3264 23.9114C33.8334 24.2675 33.6964 24.9796 34.0799 25.4726C34.4359 25.9657 35.1481 26.0752 35.6411 25.7191C36.1341 25.3631 36.271 24.651 35.8876 24.158C35.5315 23.6649 34.8194 23.5554 34.3264 23.9114Z" fill="#20201E"/>
<path id="Vector_11" fill-rule="evenodd" clip-rule="evenodd" d="M25.8357 23.9114C26.3287 24.2675 26.4656 24.9796 26.0822 25.4726C25.7261 25.9657 25.014 26.0752 24.521 25.7191C24.0279 25.3631 23.891 24.651 24.2745 24.158C24.6305 23.6649 25.3153 23.5554 25.8357 23.9114Z" fill="#20201E"/>
<path id="Vector_12" fill-rule="evenodd" clip-rule="evenodd" d="M35.6958 27.9925C35.0659 28.4855 35.0385 29.1976 35.641 29.6084C36.2436 29.9919 37.257 29.9371 37.887 29.4441C38.5169 28.9511 38.5443 28.239 37.9418 27.8281C37.3392 27.4173 36.3532 27.4994 35.6958 27.9925Z" fill="#ED847E"/>
<path id="Vector_13" fill-rule="evenodd" clip-rule="evenodd" d="M24.4387 27.9925C25.0687 28.4855 25.0961 29.1976 24.4935 29.6084C23.8909 29.9919 22.8775 29.9371 22.2476 29.4441C21.6176 28.9511 21.5902 28.239 22.1928 27.8281C22.7954 27.4173 23.8088 27.4994 24.4387 27.9925Z" fill="#ED847E"/>
<path id="Vector_14" fill-rule="evenodd" clip-rule="evenodd" d="M33.8334 20.8711C33.8882 20.8438 33.9156 20.8438 33.9704 20.8164C34.4634 20.652 34.8742 20.5973 35.3946 20.6246C35.915 20.6794 36.2985 20.789 36.7367 21.0355C36.9284 21.1724 37.7227 21.8024 37.5036 22.0489C37.4214 22.0763 36.6271 21.6654 36.3806 21.5833C36.0246 21.4737 35.7233 21.4463 35.3398 21.4463C34.9838 21.4737 34.7099 21.5011 34.3812 21.6381C34.3812 21.6381 34.3264 21.6654 34.299 21.6654C33.6417 21.9941 33.6965 22.1858 33.2582 21.8846C32.5735 21.5285 33.2856 21.145 33.8334 20.8711Z" fill="#CC7A00"/>
<path id="Vector_15" fill-rule="evenodd" clip-rule="evenodd" d="M26.3834 20.8711C26.3286 20.8438 26.3012 20.8438 26.2465 20.8164C25.7535 20.652 25.3426 20.5973 24.8222 20.6246C24.3018 20.6794 23.9184 20.789 23.4801 21.0355C23.2884 21.1724 22.4941 21.8024 22.7132 22.0489C22.7954 22.0763 23.5897 21.6654 23.8362 21.5833C24.1923 21.4737 24.4935 21.4463 24.877 21.4463C25.2331 21.4737 25.507 21.5011 25.8356 21.6381C25.8356 21.6381 25.8904 21.6654 25.9178 21.6654C26.5751 21.9941 26.5204 22.1858 26.9586 21.8846C27.6433 21.5285 26.9312 21.145 26.3834 20.8711Z" fill="#CC7A00"/>
<path id="Vector_16" fill-rule="evenodd" clip-rule="evenodd" d="M33.3678 30.622C32.2174 30.5946 31.0671 30.5946 29.9167 30.5946C28.7664 30.5946 27.616 30.5946 26.4657 30.622C26.4657 32.4297 28.246 33.087 29.9167 33.087C31.5601 33.0597 33.3678 32.4297 33.3678 30.622Z" fill="white"/>
<path id="Vector_17" fill-rule="evenodd" clip-rule="evenodd" d="M30.6835 34.1551C30.7383 34.1277 30.7657 34.0455 30.7383 33.9634C30.7109 33.9086 30.6287 33.8812 30.5465 33.9086C30.3548 34.0182 30.1083 34.0729 29.8892 34.0729C29.6427 34.0729 29.4236 34.0182 29.2319 33.9086C29.1771 33.8812 29.0949 33.8812 29.0401 33.9634C29.0127 34.0182 29.0127 34.1003 29.0949 34.1551C29.314 34.292 29.6153 34.3468 29.8892 34.3468C30.1905 34.3468 30.4644 34.292 30.6835 34.1551Z" fill="#ED847E"/>
<path id="Vector_18" fill-rule="evenodd" clip-rule="evenodd" d="M30.2179 28.1293C30.3001 28.1293 30.3549 28.0745 30.3549 27.9924C30.3549 27.9102 30.3001 27.8554 30.2179 27.8554C29.8892 27.8554 29.5058 27.8554 29.2045 27.8006C28.958 27.7459 28.7663 27.6911 28.7663 27.5815C28.7663 27.1981 29.1497 24.7604 29.1771 24.7604C29.1771 24.6782 29.1497 24.6235 29.0676 24.5961C28.9854 24.5961 28.9306 24.6235 28.9032 24.7056C28.9032 24.7056 28.4924 27.1707 28.4924 27.5815C28.4924 27.8554 28.7663 28.0197 29.1497 28.0745C29.4784 28.1293 29.8618 28.1293 30.2179 28.1293Z" fill="#ED847E"/>
<path id="Vector_19" fill-rule="evenodd" clip-rule="evenodd" d="M17.2353 29.2798C17.2353 29.362 17.2901 29.4168 17.3723 29.4168C17.4544 29.4168 17.5092 29.362 17.5092 29.2798C17.5092 28.869 17.5914 28.5951 17.7009 28.4581C17.7831 28.376 17.8653 28.3212 17.9474 28.3212C18.057 28.3212 18.1939 28.3486 18.3309 28.4308C18.6869 28.6225 19.0704 29.0607 19.2621 29.5263C19.3717 29.7455 19.4538 29.992 19.4812 30.1563C19.2621 30.0193 19.043 29.9646 18.8513 29.9646C18.7417 29.9646 18.6322 30.0193 18.55 30.0741C18.4678 30.1289 18.413 30.2111 18.3583 30.3206C18.3035 30.5124 18.3583 30.7589 18.55 31.0601C18.6048 31.1149 18.6869 31.1423 18.7417 31.0875C18.7965 31.0328 18.8239 30.9506 18.7691 30.8958C18.6322 30.6767 18.5774 30.5124 18.6048 30.3754C18.6322 30.3206 18.6596 30.2932 18.6869 30.2659C18.7417 30.2385 18.7965 30.2111 18.8513 30.2111C19.0156 30.1837 19.2347 30.2659 19.4265 30.4576C19.4812 30.5124 19.5086 30.5397 19.5634 30.5397C19.673 30.5671 19.7277 30.5124 19.7551 30.4028C19.7551 30.3754 19.7551 30.3206 19.7551 30.2385C19.7277 30.0467 19.6182 29.6907 19.4538 29.3894C19.2347 28.869 18.8239 28.4034 18.413 28.1569C18.2487 28.0473 18.057 27.9925 17.8926 28.0199C17.7283 28.0199 17.564 28.1021 17.427 28.239C17.3449 28.4855 17.2353 28.8142 17.2353 29.2798Z" fill="#ED847E"/>
<path id="Vector_20" fill-rule="evenodd" clip-rule="evenodd" d="M42.7076 29.2797C42.7076 29.3619 42.7623 29.4167 42.8445 29.4167C42.9267 29.4167 42.9814 29.3619 42.9814 29.2797C42.9814 28.7867 42.8993 28.4854 42.7349 28.2937C42.598 28.1294 42.461 28.0746 42.2693 28.0746C42.105 28.0746 41.9406 28.1294 41.7489 28.2115C41.3381 28.4306 40.9272 28.9237 40.7081 29.4441C40.5712 29.7727 40.4616 30.1014 40.4068 30.2931C40.4068 30.3479 40.4068 30.4027 40.4068 30.4575C40.4342 30.567 40.489 30.6218 40.5986 30.5944C40.6533 30.5944 40.6807 30.567 40.7355 30.5122C40.9272 30.3205 41.1464 30.2384 41.3107 30.2657C41.3655 30.2657 41.4202 30.2931 41.475 30.3205C41.5024 30.3479 41.5298 30.3753 41.5572 30.4301C41.5846 30.5396 41.5572 30.704 41.3929 30.9505C41.3381 31.0053 41.3655 31.0874 41.4202 31.1422C41.475 31.197 41.5572 31.1696 41.612 31.1148C41.8037 30.8135 41.8585 30.567 41.8037 30.3753C41.7763 30.2657 41.6941 30.1836 41.612 30.1288C41.5298 30.074 41.4203 30.0466 41.3107 30.0192C41.119 29.9918 40.8725 30.0466 40.6807 30.211C40.7355 30.0466 40.8177 29.8001 40.8999 29.581C41.0916 29.1154 41.475 28.6772 41.8311 28.4854C41.968 28.4033 42.0776 28.3759 42.2145 28.3759C42.3241 28.3759 42.4063 28.4306 42.461 28.5128C42.6254 28.6224 42.7076 28.8689 42.7076 29.2797Z" fill="#ED847E"/>
<path id="Vector_21" fill-rule="evenodd" clip-rule="evenodd" d="M44.2962 54.8889C44.2962 54.7793 44.214 54.6971 44.1044 54.6971C43.9949 54.6971 43.9127 54.7793 43.9127 54.8889L43.9675 60.5037C43.9675 60.6133 44.0497 60.6954 44.1592 60.6954C44.2688 60.6954 44.351 60.6133 44.351 60.5037L44.2962 54.8889Z" fill="#263238"/>
<path id="Vector_22" fill-rule="evenodd" clip-rule="evenodd" d="M16.2768 54.8889C16.2768 54.7793 16.1946 54.6971 16.085 54.6971C15.9755 54.6971 15.8933 54.7793 15.8933 54.8889L15.9481 60.5037C15.9481 60.6133 16.0303 60.6954 16.1398 60.6954C16.2494 60.6954 16.3315 60.6133 16.3315 60.5037L16.2768 54.8889Z" fill="#263238"/>
<path id="Vector_23" fill-rule="evenodd" clip-rule="evenodd" d="M42.0502 24.5415C41.8584 26.3492 40.2972 29.0608 39.9686 29.8551C39.6399 30.6494 39.9412 27.3079 39.9412 23.0351C39.9412 18.7624 42.0502 24.5415 42.0502 24.5415Z" fill="#CC7A00"/>
<path id="Vector_24" fill-rule="evenodd" clip-rule="evenodd" d="M18.1118 24.5415C18.3035 26.3492 19.8647 29.0608 20.1934 29.8551C20.5221 30.6494 20.2208 27.3079 20.2208 23.0351C20.2208 18.7624 18.1118 24.5415 18.1118 24.5415Z" fill="#CC7A00"/>
<path id="Vector_25" fill-rule="evenodd" clip-rule="evenodd" d="M31.8613 12.5722C33.3677 12.5722 34.792 15.3933 34.9289 17.7488C35.3945 26.13 43.4196 23.2541 44.3235 28.4307C44.6522 27.4721 45.4739 24.1853 45.556 23.7745C46.2134 20.7069 42.1597 17.1736 41.3928 13.8869C40.6259 10.5454 38.7087 7.9434 36.3258 6.76566C34.2442 5.75225 31.9161 5.77964 30.7931 7.03955C30.4371 7.31345 30.1084 7.64212 30.1084 7.64212C30.1084 7.64212 29.8345 7.36823 29.5058 7.09433C28.4102 5.72486 26 5.67008 23.8362 6.76566C21.5081 7.97079 19.5908 10.6002 18.8239 13.8869C18.057 17.1736 14.0034 20.7069 14.6607 23.7745C14.7429 24.1853 15.5646 27.4447 15.8933 28.4307C16.7971 23.2267 24.0005 25.8287 24.877 17.4749C25.1783 14.5716 26.493 13.1748 27.7803 12.9283C27.9172 12.9009 28.9854 12.5722 29.9714 14.106C30.2179 14.5169 30.3823 12.5722 31.8613 12.5722Z" fill="#FF9900"/>
</g>
</g>
</g>
</svg>
