<svg width="60" height="60" viewBox="0 0 60 60" fill="none" xmlns="http://www.w3.org/2000/svg">
<g id="&#208;&#144;&#208;&#178;&#208;&#176;&#209;&#130;&#208;&#176;&#209;&#128;">
<mask id="mask0_4_47294" style="mask-type:alpha" maskUnits="userSpaceOnUse" x="0" y="0" width="60" height="60">
<circle id="Ellipse 4" cx="30" cy="30" r="30" fill="#9ED7F4"/>
</mask>
<g mask="url(#mask0_4_47294)">
<g id="1">
<path id="Vector" fill-rule="evenodd" clip-rule="evenodd" d="M30.5303 43.946C32.2862 49.5647 35.6898 52.7252 41.7137 54.238C40.174 51.9959 40.7142 48.6463 43.3075 47.2146C45.9007 45.7829 48.7641 44.3782 48.7371 41.4879C48.7371 37.0037 45.3064 37.517 47.2784 34.5996C49.2503 31.6822 49.3854 26.7658 45.8197 24.3887C45.7656 24.3617 45.7116 24.3347 45.6846 24.2806C45.0093 23.6323 44.523 23.4702 45.3064 22.1736C50.3308 13.6916 35.0955 5.37158 30.6384 12.2599C29.6659 10.8822 27.9101 9.45053 24.8576 9.8017C22.9667 10.0178 18.1314 11.9897 15.9974 15.5284C12.4317 21.3902 17.7532 21.2822 15.187 24.3347C14.9169 24.5508 14.6467 24.7939 14.4306 25.091C14.4036 25.118 14.3766 25.145 14.3496 25.1721C10.973 27.8193 11.8104 31.7092 13.7823 34.6266C15.7543 37.544 11.9184 37.571 11.8644 41.3798C11.7834 45.2427 15.8623 45.999 18.4556 47.4307C21.0488 48.8624 20.9137 51.9959 19.374 54.238C25.3709 52.7252 28.7745 49.5647 30.5303 43.946Z" fill="#CC7A00"/>
<path id="Vector_2" fill-rule="evenodd" clip-rule="evenodd" d="M30.2872 59.7756H49.5745C49.5745 41.6229 35.1766 51.4286 35.1766 36.3014H30.2872H25.3169C25.3169 51.4286 11 41.6229 11 59.7756H30.2872Z" fill="#FFC3BD"/>
<path id="Vector_3" fill-rule="evenodd" clip-rule="evenodd" d="M19.7522 27.09C19.6982 26.5768 17.6182 25.9825 16.9158 27.6573C16.2135 29.3321 17.4831 31.7092 19.8602 31.8983C22.2374 32.0874 21.535 31.6552 21.535 31.6552L19.7522 27.09Z" fill="#FFC3BD"/>
<path id="Vector_4" fill-rule="evenodd" clip-rule="evenodd" d="M40.9033 27.09C40.9573 26.5768 43.0373 25.9825 43.7397 27.6573C44.442 29.3321 43.1724 31.7092 40.7953 31.8983C38.4181 32.0874 39.1205 31.6552 39.1205 31.6552L40.9033 27.09Z" fill="#E4AE7C"/>
<path id="Vector_5" fill-rule="evenodd" clip-rule="evenodd" d="M35.2846 35.8691C35.2846 35.8691 35.2576 36.5715 35.2846 37.598C33.3937 42.3522 27.5049 42.8925 25.3439 37.7871C25.3709 36.6525 25.3439 35.8691 25.3439 35.8691C28.6394 35.8691 31.962 35.8691 35.2846 35.8691Z" fill="#CC9C97"/>
<path id="Vector_6" fill-rule="evenodd" clip-rule="evenodd" d="M30.2872 38.3814C17.9153 38.6785 11.6753 8.18093 30.2872 8.9643C48.8991 8.18093 42.6591 38.6785 30.2872 38.3814Z" fill="#FFC3BD"/>
<path id="Vector_7" fill-rule="evenodd" clip-rule="evenodd" d="M24.7766 27.6842C25.3979 28.1704 25.4249 28.8728 24.8306 29.278C24.2363 29.6562 23.2369 29.6021 22.6156 29.1159C21.9943 28.6297 21.9673 27.9273 22.5615 27.5221C23.1558 27.1169 24.1553 27.198 24.7766 27.6842Z" fill="#ED847E"/>
<path id="Vector_8" fill-rule="evenodd" clip-rule="evenodd" d="M35.8789 27.6842C35.2576 28.1704 35.2306 28.8728 35.8249 29.278C36.4192 29.6562 37.4186 29.6021 38.0399 29.1159C38.6612 28.6297 38.6882 27.9273 38.094 27.5221C37.5267 27.1169 36.5272 27.198 35.8789 27.6842Z" fill="#ED847E"/>
<path id="Vector_9" fill-rule="evenodd" clip-rule="evenodd" d="M26.6405 20.6609C26.5864 20.6339 26.5594 20.6339 26.5054 20.6069C26.0192 20.4448 25.614 20.3908 25.1007 20.4178C24.5875 20.4718 24.2093 20.5798 23.7771 20.823C23.588 20.958 22.8046 21.5793 23.0207 21.8224C23.1018 21.8495 23.8852 21.4443 24.1283 21.3632C24.4794 21.2552 24.7766 21.2282 25.1548 21.2282C25.5059 21.2552 25.7761 21.2822 26.1002 21.4172C26.1002 21.4172 26.1542 21.4443 26.1813 21.4443C26.8296 21.7684 26.7755 21.9575 27.2077 21.6604C27.8561 21.3362 27.1537 20.931 26.6405 20.6609Z" fill="#263238"/>
<path id="Vector_10" fill-rule="evenodd" clip-rule="evenodd" d="M33.961 20.6609C34.015 20.6339 34.042 20.6339 34.096 20.6069C34.5823 20.4448 34.9875 20.3908 35.5007 20.4178C36.014 20.4718 36.3921 20.5798 36.8244 20.823C37.0134 20.958 37.7968 21.5793 37.5807 21.8224C37.4997 21.8495 36.7163 21.4443 36.4732 21.3632C36.122 21.2552 35.8249 21.2282 35.4467 21.2282C35.0955 21.2552 34.8254 21.2822 34.5012 21.4172C34.5012 21.4172 34.4472 21.4443 34.4202 21.4443C33.7719 21.7684 33.8259 21.9575 33.3937 21.6604C32.7454 21.3362 33.4477 20.931 33.961 20.6609Z" fill="#263238"/>
<path id="Vector_11" fill-rule="evenodd" clip-rule="evenodd" d="M27.0997 30.2775C28.2342 30.2505 29.3688 30.2505 30.5033 30.2505C31.6379 30.2505 32.7724 30.2505 33.907 30.2775C33.907 32.0604 32.1511 32.7087 30.5033 32.7087C28.8555 32.7087 27.0997 32.0604 27.0997 30.2775Z" fill="white"/>
<path id="Vector_12" fill-rule="evenodd" clip-rule="evenodd" d="M29.72 33.7622C29.6659 33.7352 29.6389 33.6542 29.6659 33.5731C29.6929 33.5191 29.774 33.4921 29.855 33.5191C30.0441 33.6271 30.2872 33.6812 30.5033 33.6812C30.7464 33.6812 30.9626 33.6271 31.1516 33.5191C31.2057 33.4921 31.2867 33.4921 31.3407 33.5731C31.3677 33.6271 31.3677 33.7082 31.2867 33.7622C31.0706 33.8973 30.7735 33.9513 30.5033 33.9513C30.2332 33.9783 29.9361 33.8973 29.72 33.7622Z" fill="#ED847E"/>
<path id="Vector_13" fill-rule="evenodd" clip-rule="evenodd" d="M30.2062 27.8194C30.1252 27.8194 30.0711 27.7654 30.0711 27.6843C30.0711 27.6033 30.1252 27.5493 30.2062 27.5493C30.5304 27.5493 30.9085 27.5493 31.2057 27.4952C31.4488 27.4412 31.6379 27.3872 31.6379 27.2791C31.6379 26.9009 31.2597 24.4968 31.2327 24.4968C31.2327 24.4158 31.2597 24.3617 31.3407 24.3347C31.4218 24.3347 31.4758 24.3617 31.5028 24.4428C31.5028 24.4428 31.908 26.8739 31.908 27.2791C31.908 27.5493 31.6379 27.7113 31.2597 27.7654C30.9356 27.8194 30.5304 27.8194 30.2062 27.8194Z" fill="#ED847E"/>
<path id="Vector_14" fill-rule="evenodd" clip-rule="evenodd" d="M26.2641 23.2982C26.7503 23.6494 26.8854 24.3517 26.5072 24.838C26.1561 25.3242 25.4537 25.4322 24.9675 25.0811C24.4813 24.7299 24.3462 24.0276 24.7244 23.5413C25.0755 23.0551 25.7779 22.9471 26.2641 23.2982Z" fill="#263238"/>
<path id="Vector_15" fill-rule="evenodd" clip-rule="evenodd" d="M34.6381 23.2982C34.1519 23.6494 34.0168 24.3517 34.395 24.838C34.7462 25.3242 35.4485 25.4322 35.9348 25.0811C36.421 24.7299 36.556 24.0276 36.1779 23.5413C35.8267 23.0551 35.1514 22.9471 34.6381 23.2982Z" fill="#263238"/>
<path id="Vector_16" fill-rule="evenodd" clip-rule="evenodd" d="M42.9833 28.9809C42.9833 29.062 42.9293 29.116 42.8482 29.116C42.7672 29.116 42.7132 29.062 42.7132 28.9809C42.7132 28.5757 42.6321 28.3056 42.5241 28.1705C42.4431 28.0895 42.362 28.0355 42.281 28.0355C42.1729 28.0355 42.0379 28.0625 41.9028 28.1435C41.5516 28.3326 41.1734 28.7648 40.9844 29.224C40.8763 29.4401 40.7953 29.6833 40.7683 29.8453C40.9844 29.7103 41.2005 29.6562 41.3896 29.6562C41.4976 29.6562 41.6057 29.7103 41.6867 29.7643C41.7677 29.8183 41.8218 29.8994 41.8758 30.0074C41.9298 30.1965 41.8758 30.4396 41.6867 30.7368C41.6327 30.7908 41.5516 30.8178 41.4976 30.7638C41.4436 30.7098 41.4166 30.6287 41.4706 30.5747C41.6057 30.3586 41.6597 30.1965 41.6327 30.0614C41.6057 30.0074 41.5786 29.9804 41.5516 29.9534C41.4976 29.9264 41.4436 29.8994 41.3896 29.8994C41.2275 29.8724 41.0114 29.9534 40.8223 30.1425C40.7683 30.1965 40.7412 30.2235 40.6872 30.2235C40.5792 30.2505 40.5251 30.1965 40.4981 30.0885C40.4981 30.0614 40.4981 30.0074 40.4981 29.9264C40.5251 29.7373 40.6332 29.3861 40.7953 29.089C41.0114 28.5757 41.4166 28.1165 41.8218 27.8734C41.9838 27.7653 42.1729 27.7113 42.335 27.7383C42.4971 27.7383 42.6592 27.8194 42.7942 27.9544C42.9023 28.1975 42.9833 28.4947 42.9833 28.9809Z" fill="#D67F54"/>
<path id="Vector_17" fill-rule="evenodd" clip-rule="evenodd" d="M17.8883 28.9809C17.8883 29.062 17.8343 29.116 17.7532 29.116C17.6722 29.116 17.6182 29.062 17.6182 28.9809C17.6182 28.4947 17.6992 28.1976 17.8613 28.0085C17.9963 27.8464 18.1314 27.7924 18.3205 27.7924C18.4826 27.7924 18.6447 27.8464 18.8337 27.9274C19.2389 28.1435 19.6441 28.6298 19.8602 29.143C19.9953 29.4672 20.1034 29.7913 20.1574 29.9804C20.1574 30.0344 20.1574 30.0885 20.1574 30.1425C20.1304 30.2505 20.0763 30.3046 19.9683 30.2775C19.9143 30.2775 19.8873 30.2505 19.8332 30.1965C19.6441 30.0074 19.428 29.9264 19.266 29.9534C19.2119 29.9534 19.1579 29.9804 19.1039 30.0074C19.0769 30.0344 19.0498 30.0614 19.0228 30.1155C18.9958 30.2235 19.0228 30.3856 19.1849 30.6287C19.2389 30.6827 19.2119 30.7638 19.1579 30.8178C19.1039 30.8718 19.0228 30.8448 18.9688 30.7908C18.7797 30.4937 18.7257 30.2505 18.7797 30.0614C18.8067 29.9534 18.8878 29.8724 18.9688 29.8183C19.0498 29.7643 19.1579 29.7373 19.266 29.7103C19.455 29.6833 19.6711 29.7373 19.8873 29.8994C19.8332 29.7373 19.7522 29.4942 19.6711 29.2781C19.4821 28.8188 19.1039 28.3866 18.7527 28.1976C18.6176 28.1165 18.5096 28.0895 18.3745 28.0895C18.2665 28.0895 18.1854 28.1435 18.1314 28.2246C17.9423 28.3056 17.8883 28.5757 17.8883 28.9809Z" fill="#ED847E"/>
<path id="Vector_18" fill-rule="evenodd" clip-rule="evenodd" d="M19.9143 28.9809C18.6717 26.5498 18.6987 23.8215 18.5636 22.795C17.4291 12.5571 23.8041 7.69476 30.0981 7.88385C30.1522 7.88385 30.2332 7.88385 30.2872 7.88385V11.9088C29.1257 11.5306 28.1532 11.2875 27.613 11.2875C27.5589 11.2875 27.4779 11.2875 27.4239 11.2875C27.3698 11.2875 27.2888 11.2875 27.2348 11.2875C25.7761 11.2875 25.0737 13.7186 23.3989 14.3669C22.4535 14.7451 23.3449 19.1753 22.3724 21.3903C22.1293 21.9306 20.8597 23.2002 20.5626 23.3352C19.7252 24.1997 19.6171 25.1721 19.9143 28.9809Z" fill="#FF9900"/>
<path id="Vector_19" fill-rule="evenodd" clip-rule="evenodd" d="M40.6872 28.9809C41.9298 26.5498 41.9028 23.8215 42.0379 22.795C43.1724 12.5571 36.7973 7.69476 30.5033 7.88385C30.4493 7.88385 30.3683 7.88385 30.3142 7.88385V11.9088C31.4758 11.5306 32.4483 11.2875 32.9885 11.2875C33.0425 11.2875 33.1236 11.2875 33.1776 11.2875C33.2316 11.2875 33.3127 11.2875 33.3667 11.2875C34.8254 11.2875 35.5277 14.394 37.2025 15.0423C38.148 15.4205 37.2566 19.1753 38.229 21.3903C38.4721 21.9306 39.7418 23.2002 40.0389 23.3352C40.8763 24.1997 40.9573 25.1721 40.6872 28.9809Z" fill="#CC7A00"/>
<path id="Vector_20" fill-rule="evenodd" clip-rule="evenodd" d="M30.2872 59.7757H45.0093L44.1989 54.7242H16.4026L15.5922 59.7757H30.2872Z" fill="#263238"/>
<path id="Vector_21" fill-rule="evenodd" clip-rule="evenodd" d="M17.4831 55.1565C17.4831 55.4806 17.213 55.7238 16.8888 55.6967C16.5647 55.6967 16.3215 55.4266 16.3486 55.1025L17.4831 46.8365C17.4831 46.5123 17.7532 46.2692 18.0774 46.2962C18.4015 46.2962 18.6447 46.5664 18.6176 46.8905L17.4831 55.1565Z" fill="#263238"/>
<path id="Vector_22" fill-rule="evenodd" clip-rule="evenodd" d="M43.1184 55.1565C43.1184 55.4806 43.3885 55.7238 43.7127 55.6967C44.0368 55.6967 44.2799 55.4266 44.2529 55.1025L43.1184 46.8365C43.1184 46.5123 42.8482 46.2692 42.5241 46.2962C42.1999 46.2962 41.9568 46.5664 41.9838 46.8905L43.1184 55.1565Z" fill="#263238"/>
<path id="Vector_23" fill-rule="evenodd" clip-rule="evenodd" d="M22.9667 14.9882C28.5584 11.0983 26.1272 17.9866 30.8545 18.0136C33.2046 18.0136 35.3657 18.9591 35.3116 20.9581C35.2846 22.957 35.2576 23.8484 37.4186 24.8749C41.6056 26.8739 33.6098 33.7892 44.0908 34.1944C42.9833 29.143 48.1968 27.4952 46.441 23.1191C44.6851 18.743 41.2815 20.0126 42.0379 17.2843C42.6321 15.1503 42.8753 12.8272 41.3355 11.1794C39.1205 8.80224 36.9054 11.2334 35.5007 8.93731C34.3122 7.01939 33.6098 4.15602 28.5584 5.23653C22.1023 6.58718 21.8322 11.7196 22.9667 14.9882Z" fill="#FF9900"/>
<path id="Vector_24" fill-rule="evenodd" clip-rule="evenodd" d="M23.6691 12.584C23.615 12.6381 23.534 12.6651 23.48 12.611C23.4259 12.557 23.3989 12.476 23.453 12.4219C23.6691 12.1248 24.1823 11.8007 24.7766 11.5845C25.2088 11.4225 25.695 11.3414 26.1813 11.3414C26.6675 11.3414 27.1537 11.4765 27.5319 11.7466C27.8831 11.9897 28.1802 12.3679 28.3693 12.9082C28.7745 14.0967 29.1797 14.7721 29.6929 15.1503C30.2332 15.5284 30.9355 15.6095 31.962 15.6635C33.0425 15.7175 34.3392 15.8796 35.3657 16.4739C36.4192 17.0682 37.2025 18.0406 37.2566 19.7425C37.3106 21.3362 37.4997 22.2276 37.8508 22.7949C38.175 23.3082 38.6882 23.5243 39.3636 23.7404C39.4176 23.7674 39.4716 23.7674 39.4986 23.7944C40.174 24.0375 40.6602 24.4697 40.9033 25.091C41.1464 25.7123 41.1464 26.4957 40.8223 27.4952C40.7953 27.6032 40.7682 27.6843 40.7142 27.7923C40.336 28.8458 40.228 29.7913 40.3901 30.5476C40.5521 31.304 40.9573 31.8713 41.5246 32.1414C41.6056 32.1684 41.6327 32.2494 41.6056 32.3035C41.5786 32.3845 41.4976 32.4115 41.4436 32.3845C40.7682 32.0874 40.309 31.4661 40.1469 30.6016C39.9849 29.7913 40.0929 28.7918 40.4981 27.7113C40.5251 27.6032 40.5792 27.5222 40.6062 27.4411C40.9033 26.4957 40.9303 25.7663 40.7142 25.1991C40.4981 24.6588 40.0659 24.2806 39.4446 24.0645C39.3906 24.0375 39.3636 24.0375 39.3095 24.0105C38.5802 23.7674 38.0399 23.5513 37.6347 22.957C37.2566 22.3627 37.0675 21.4443 37.0134 19.7695C36.9594 18.2027 36.2301 17.2843 35.2576 16.717C34.2581 16.1767 33.0155 16.0147 31.962 15.9606C30.8815 15.9066 30.1251 15.7986 29.5579 15.3934C28.9636 14.9882 28.5584 14.2858 28.1262 13.0432C27.9641 12.584 27.694 12.2329 27.3968 12.0168C27.0457 11.7736 26.6135 11.6656 26.1813 11.6386C25.7491 11.6386 25.2898 11.7196 24.8846 11.8547C24.3174 12.0438 23.8582 12.3409 23.6691 12.584Z" fill="#263238"/>
<path id="Vector_25" fill-rule="evenodd" clip-rule="evenodd" d="M25.0467 8.72125C24.9927 8.74826 24.9117 8.72125 24.8576 8.66723C24.8306 8.6132 24.8576 8.53216 24.9117 8.47813C25.1548 8.34307 25.4519 8.23502 25.8031 8.15398C26.5324 7.93788 27.4239 7.85684 28.2072 8.01891C29.0176 8.18099 29.72 8.58619 30.1251 9.36956C30.2062 9.50463 30.2602 9.6667 30.2872 9.82878C30.5844 10.8553 31.1246 11.5846 31.827 12.0168C32.6374 12.5031 33.6368 12.6381 34.6093 12.5031C34.8254 12.476 35.0415 12.449 35.2846 12.449C36.176 12.449 37.2025 12.6922 38.0129 13.1784C38.8503 13.6646 39.5256 14.394 39.6607 15.3934C39.6877 15.5285 39.6877 15.6906 39.6877 15.8257C39.6877 16.2579 39.6877 16.6901 39.6607 17.0953C39.6067 18.689 39.5797 19.6345 40.4981 20.1747C40.5792 20.2288 40.6332 20.2558 40.7142 20.3098C42.1459 21.1202 45.6306 23.1462 44.388 26.4147C43.0914 29.7643 42.8212 30.1425 42.8212 30.1425C42.7672 30.1965 42.6862 30.2235 42.6321 30.1695C42.5781 30.1155 42.5511 30.0345 42.6051 29.9804C42.6051 29.9804 42.8752 29.6293 44.1449 26.3337C45.3064 23.2812 41.9568 21.3363 40.5792 20.5529C40.4981 20.4989 40.4171 20.4719 40.363 20.4178C39.3095 19.7966 39.3366 18.7971 39.3906 17.0953C39.3906 16.7171 39.4176 16.3119 39.4176 15.8257C39.4176 15.6906 39.4176 15.5555 39.3906 15.4205C39.2555 14.502 38.6612 13.8537 37.8779 13.3945C37.0945 12.9353 36.122 12.7192 35.2846 12.7192C35.0685 12.7192 34.8524 12.7462 34.6633 12.7732C33.6368 12.9353 32.5833 12.7732 31.7189 12.2599C30.9625 11.8007 30.3683 11.0444 30.0441 9.90982C29.9901 9.77476 29.9631 9.61268 29.882 9.50463C29.5309 8.80229 28.9096 8.45112 28.1802 8.31606C27.4239 8.18099 26.5865 8.26203 25.8841 8.45112C25.56 8.50515 25.2898 8.6132 25.0467 8.72125Z" fill="#263238"/>
</g>
</g>
</g>
</svg>
