<svg width="90" height="13" viewBox="0 0 90 13" fill="none" xmlns="http://www.w3.org/2000/svg">
<g id="&#208;&#151;&#208;&#178;&#208;&#181;&#208;&#183;&#208;&#180;&#208;&#190;&#209;&#135;&#208;&#186;&#208;&#184;">
<path id="Vector 25" d="M80.931 4.35143L83.0172 1L85.0345 4.35143L89 5.19759L86.3793 8.15083L86.7414 12L83.0172 10.4736L79.3103 12L79.6552 8.15083L77 5.19759L80.931 4.35143Z" fill="#ECC50C" stroke="white" stroke-width="0.7"/>
<path id="Vector 26" d="M61.931 4.35143L64.0172 1L66.0345 4.35143L70 5.19759L67.3793 8.15083L67.7414 12L64.0172 10.4736L60.3103 12L60.6552 8.15083L58 5.19759L61.931 4.35143Z" fill="#ECC50C" stroke="white" stroke-width="0.7"/>
<path id="Vector 28" d="M23.931 4.35143L26.0172 1L28.0345 4.35143L32 5.19759L29.3793 8.15083L29.7414 12L26.0172 10.4736L22.3103 12L22.6552 8.15083L20 5.19759L23.931 4.35143Z" fill="#ECC50C" stroke="white" stroke-width="0.7"/>
<path id="Vector 27" d="M42.931 4.35143L45.0172 1L47.0345 4.35143L51 5.19759L48.3793 8.15083L48.7414 12L45.0172 10.4736L41.3103 12L41.6552 8.15083L39 5.19759L42.931 4.35143Z" fill="#ECC50C" stroke="white" stroke-width="0.7"/>
<path id="Vector 29" d="M4.93103 4.35143L7.01724 1L9.03448 4.35143L13 5.19759L10.3793 8.15083L10.7414 12L7.01724 10.4736L3.31034 12L3.65517 8.15083L1 5.19759L4.93103 4.35143Z" fill="#ECC50C" stroke="white" stroke-width="0.7"/>
</g>
</svg>
